<svg xmlns="http://www.w3.org/2000/svg" width="592" height="96" viewBox="0 0 148 24" fill="none"><path d="M12.9367 0H12.6064C11.0499 0.192189 9.77618 2.59209 9.53984 4.03203C9.50921 3.30589 9.29858 2.59943 8.92753 1.97839C8.55648 1.35734 8.03707 0.841884 7.41764 0.47998C7.01076 0.222101 6.53747 0.0937148 6.05843 0.111274C5.57938 0.128833 5.1164 0.291538 4.72881 0.578539L1.85014 3.02378C1.40363 3.48411 1.11977 4.08212 1.043 4.72417C0.966232 5.36622 1.10089 6.01604 1.42589 6.57189C2.08648 7.77627 4.20964 10.0323 3.31369 11.2357C3.21129 11.3626 3.08117 11.4635 2.93369 11.5302C2.78621 11.597 2.62546 11.6277 2.46423 11.6201C1.56827 11.6201 1.42589 10.0835 1.42589 10.0835L0.671353 10.8513C0.671353 10.8513 1.80364 12.5268 2.9834 11.7157L5.05717 10.2728C6.80064 9.02501 4.11472 6.8646 3.26623 4.7998C2.70057 3.35986 2.9834 2.06382 4.16218 1.63114C4.55932 1.51049 4.98166 1.50496 5.38172 1.61517C5.78178 1.72539 6.14369 1.94697 6.42676 2.25502C6.84108 2.87582 7.04076 3.61919 6.99436 4.36812V12.1927C7.02507 12.7236 6.87526 13.2491 6.57012 13.6809C6.36817 13.8808 6.11723 14.0219 5.84346 14.0895C5.56968 14.1571 5.2831 14.1487 5.01358 14.0653C5.01358 14.0653 6.05192 15.2657 8.50053 13.9214C9.00728 13.6227 9.42168 13.1855 9.69679 12.6595C9.97189 12.1334 10.0967 11.5395 10.0571 10.9449V4.56031C10.0563 3.98533 10.2783 3.43322 10.675 3.02378C10.8711 2.7803 11.1527 2.62407 11.4601 2.5882C11.7674 2.55232 12.0765 2.63962 12.3217 2.83159C12.9348 3.21597 13.4065 4.55932 14.5862 4.46372L10.2479 8.83282C11.0265 8.72965 11.818 8.81198 12.5599 9.0733C13.7397 9.55328 13.6922 11.3293 13.6922 11.3293V18.8661C13.3834 19.0187 13.0446 19.0979 12.7013 19.0979C12.3581 19.0979 12.0193 19.0187 11.7105 18.8661C10.1697 18.1725 8.68649 17.3534 7.27526 16.4169C6.12749 15.7145 4.78628 15.4111 3.45414 15.5525C1.23701 15.9369 -0.323398 17.1847 0.0572615 19.5846C0.246138 20.9762 1.99446 21.8406 3.45414 21.3586L3.83189 19.3875C3.53697 19.6744 3.20331 19.917 2.84101 20.1079C2.13297 20.4923 1.1944 20.6835 0.717846 19.8674C0.578732 19.6492 0.49515 19.3992 0.474628 19.14C0.454105 18.8807 0.497287 18.6203 0.600284 18.3823C0.703281 18.1442 0.862858 17.936 1.06464 17.7763C1.26642 17.6166 1.50407 17.5105 1.75618 17.4675C3.87935 16.9393 5.5773 19.0514 7.60555 20.3474C8.12665 20.7301 8.74125 20.9594 9.38196 21.0102C10.0227 21.061 10.6648 20.9312 11.2378 20.6352L16.8993 17.2271V9.50499C16.8813 9.08956 16.7645 8.68476 16.559 8.32531C16.3536 7.96586 16.0655 7.66247 15.7195 7.44117C15.013 7.03784 14.2176 6.8232 13.4075 6.8173L18.078 2.0648L17.4649 1.53653C17.359 1.73288 17.2014 1.89528 17.0097 2.00549C16.8181 2.1157 16.6 2.16935 16.3801 2.1604C15.2953 2.1604 14.3557 0.431687 13.3145 0.0985586C13.1953 0.0432799 13.0674 0.00991223 12.9367 0V0ZM39.0724 0.143896L34.9675 3.45645C36.0523 3.40816 36.2887 3.84083 36.3351 4.03203V16.7047L35.816 17.0891L37.3725 19.3934L37.5614 19.6339L40.628 17.4735L40.4391 17.2813L39.733 17.8095L39.0249 16.7057V0.143896H39.0724ZM87.852 0.242454C87.336 0.255057 86.8385 0.440771 86.4369 0.770728L82.9451 3.54811C81.1047 5.08464 83.3693 7.77233 84.0299 9.69225C84.1579 9.92374 84.195 10.196 84.1338 10.4542C84.0725 10.7124 83.9174 10.9374 83.6996 11.0839C82.7087 11.6122 82.237 10.0274 82.1896 9.35617L81.4796 10.5123C81.5787 10.7446 81.7282 10.951 81.917 11.116C82.1057 11.281 82.3288 11.4004 82.5694 11.4651C82.81 11.5298 83.0619 11.5381 83.3061 11.4895C83.5504 11.4409 83.7806 11.3366 83.9795 11.1844L86.1027 9.21326C87.0461 8.30159 85.2067 6.23679 84.5462 4.89343C84.3619 4.62623 84.263 4.30772 84.263 3.98127C84.263 3.65483 84.3619 3.33631 84.5462 3.06911C85.1593 2.34865 85.7259 2.58913 86.2896 3.06911C87.5705 4.24153 89.168 4.99525 90.875 5.23248C91.7257 5.34071 92.5887 5.29196 93.4224 5.08858L91.1065 7.44019L90.0216 6.76802L88.1348 8.68892L92.1448 11.1854V18.8178L85.8237 15.1218C85.2197 14.8105 84.5479 14.6603 83.8712 14.6855C83.1945 14.7107 82.5352 14.9103 81.9552 15.2657C81.3079 15.6492 80.7987 16.2339 80.5023 16.9338C80.2059 17.6336 80.138 18.4118 80.3085 19.1539C80.4016 19.4679 80.5553 19.7599 80.7607 20.0126C80.9661 20.2654 81.219 20.4739 81.5046 20.6259C81.7902 20.7779 82.1028 20.8704 82.424 20.8979C82.7452 20.9254 83.0686 20.8873 83.3751 20.786V19.3451C82.4792 20.2567 80.9217 20.3533 80.6863 18.7695C80.4974 17.5217 81.7246 16.0335 82.9983 16.8496C83.4226 17.1374 89.886 20.9782 89.886 20.9782C91.7606 19.8326 93.5714 18.5822 95.3102 17.233V10.0323L91.8232 7.87187L97.1069 3.59936L95.7296 2.3999C95.3787 2.80623 94.8905 3.06341 94.3619 3.12036C91.9559 3.21892 90.6813 1.77603 89.1722 0.720463C88.8041 0.40175 88.3342 0.231031 87.851 0.240483L87.852 0.242454ZM43.0824 2.01651L40.9118 3.54811L42.7521 5.85241L44.9218 4.22028L43.0824 2.01651ZM107.618 2.01651L105.448 3.54811L107.288 5.85241L109.458 4.22028L107.618 2.01651ZM115.025 4.03302L111.015 7.44117C111.77 7.29728 112.241 7.53973 112.241 7.82555V16.9462L113.845 19.49L113.987 19.7304L116.817 17.7593L116.676 17.5188L115.967 17.9988L115.024 16.6544V7.1524H117.006V6.86461H115.024L115.025 4.03302ZM143.755 6.52951L141.538 8.205L139.084 9.78884V17.4252L140.358 19.3451L142.575 17.7612L144.557 16.4169V16.6564C144.918 18.468 145.786 20.1348 147.057 21.4562C146.701 21.6153 146.312 21.6814 145.924 21.6484C144.584 21.4998 143.277 21.1268 142.056 20.5445C141.029 20.2174 139.931 20.2006 138.895 20.4962C137.669 20.9279 136.772 21.6001 136.631 22.5601C136.613 22.8592 136.685 23.1568 136.836 23.4138C136.988 23.6708 137.212 23.8751 137.48 24L137.339 23.8561C136.631 23.1839 137.056 22.3679 137.81 22.0821C139.414 21.4582 141.066 22.6576 142.858 23.2825C143.322 23.4849 143.83 23.5646 144.333 23.5143C144.836 23.464 145.318 23.2853 145.735 22.9947L146.962 21.8426L147.198 21.6021V9.3128L148 8.78453L147.811 8.54404L147.009 9.07232L143.755 6.52951ZM29.3535 6.96021L26.4758 9.02501L26.6647 9.26549L27.2778 8.83381L28.3161 10.3703V17.571L29.5424 19.3451L29.7312 19.5856L32.6564 17.4735L32.4201 17.2813L31.712 17.8095L31.004 16.8013V9.60059C32.9857 11.3283 35.1554 10.3211 35.4382 7.29629V7.1524L35.2019 7.20069C34.4473 8.49674 33.5553 7.92115 33.1262 7.20069L33.0293 7.05679L30.911 9.36306L29.4949 7.20069L29.3535 6.96021ZM68.8394 6.96021L66.0091 9.02501L66.1505 9.26549L66.7637 8.83381L67.802 10.3703V17.571L68.9818 19.3451L69.1706 19.5856L72.0958 17.4735L71.9069 17.233L71.1989 17.7612L70.4908 16.755V9.60059C72.4726 11.3283 74.6422 10.3211 74.9251 7.29629V7.1524L74.6887 7.20069C73.9342 8.49674 73.0421 7.92115 72.613 7.20069L72.5162 7.05679L70.3969 9.36306L68.9847 7.20069L68.8394 6.96021ZM23.9284 7.0085L18.975 9.69619V15.7447L18.4093 16.1764L18.5507 16.4169L19.0699 16.0325L21.2395 19.3451L21.4284 19.5856L25.5324 16.5578L25.391 16.3174L23.5041 17.709L21.5669 14.8764V14.2526L26.3789 10.7488L26.3315 10.6049L23.9284 7.0085ZM102.428 7.0085L97.475 9.69619V15.7447L96.9093 16.1764L97.0508 16.4169L97.5699 16.0325L99.7396 19.3451L99.9285 19.5856L104.032 16.5618L103.891 16.274L102.004 17.6656L100.067 14.8814V14.2575L104.879 10.7537L104.832 10.6098L102.428 7.0085ZM63.2699 7.05679L58.3669 9.74449V15.7447L57.7538 16.1764L57.8952 16.4169L58.4143 16.0325L60.6315 19.3451L60.8203 19.5856L64.9243 16.5578L64.7829 16.2701L62.896 17.6617L60.9589 14.8774V14.2535L65.7709 10.7498L65.674 10.6059L63.2699 7.05679ZM53.7873 7.05679L51.8095 8.44844L50.5813 9.26451L49.1671 7.1524L49.0703 7.05384L48.1743 7.67771L46.2371 9.02205L46.426 9.26254L47.0391 8.83085L48.124 10.3674V17.6154L49.5449 19.6329L51.6206 18.1446L50.775 16.8013V9.5523L51.9548 8.73623L52.9931 10.3201V17.3286L54.3588 19.3934L54.5002 19.6339L57.3305 17.7139L57.1891 17.4735L56.481 17.9534L55.6781 16.6564V9.60059L56.7164 8.83282L56.575 8.59234L55.4901 9.3128L53.7873 7.05679ZM43.3652 7.1041L40.4401 9.12061L40.5815 9.36109L41.1946 8.92941L42.2329 10.4659V17.6666L43.5066 19.4407L43.6481 19.6812L46.5258 17.71L46.3844 17.4695L45.6763 17.9495L44.9218 16.7973V9.5523L43.4137 7.29333L43.3652 7.1041ZM107.901 7.1041L104.976 9.07527L105.117 9.31576L105.73 8.88407L106.769 10.4206V17.6213L108.042 19.3953L108.184 19.6358L111.062 17.6647L110.92 17.4242L110.212 17.9042L109.505 16.755V9.5523L107.995 7.29333L107.901 7.1041ZM134.65 7.1524L132.668 8.54404L131.442 9.36011L129.932 7.1524L129.036 7.77627L127.099 9.07232L127.24 9.3128L127.853 8.88111L128.938 10.4176V17.6656L130.353 19.6821L132.429 18.1939L131.579 16.8496V9.60059L132.759 8.83282L133.75 10.4167V17.4252L135.118 19.489L135.259 19.7295L138.089 17.8095L137.948 17.5691L137.24 18.049L136.442 16.755V9.64888L137.48 8.88111L137.339 8.64063L136.254 9.4084L134.65 7.1524ZM124.13 7.25095L122.054 8.6909L123.234 10.5635V17.5237L121.913 18.2915L121.017 16.8515V9.98497L119.223 7.29333L118.373 7.86892L116.392 9.21326L116.533 9.45374L117.335 8.92546L118.279 10.462V16.8939L120.165 19.6782L123.326 17.707L124.647 19.627L127.477 17.707L127.288 17.4666L126.58 17.9465L125.872 16.8427V9.88838L124.13 7.25095ZM141.63 8.30455L144.601 10.801V16.1291L142.432 17.5691L141.63 16.4652V8.30455ZM21.5698 8.35284L24.0698 12.0981L21.5698 13.8721V8.35284ZM100.117 8.40113L102.617 12.0971L100.117 13.8711V8.40113ZM60.9618 8.44943L63.4152 12.0961L60.9153 13.8701L60.9618 8.44943Z" fill="#050505"></path></svg>